<svg id="Layer_1" data-name="Layer 1" xmlns="http://www.w3.org/2000/svg" viewBox="0 0 28 27.2861"><defs><style>.cls-1{fill:#589e9e;}</style></defs><title>external link</title><path class="cls-1" d="M17.9287,27.2861H5.0713A5.0775,5.0775,0,0,1,0,22.2139V9.3569A5.0769,5.0769,0,0,1,5.0713,4.2856h7.5894a1.5,1.5,0,0,1,0,3H5.0713A2.0737,2.0737,0,0,0,3,9.3569V22.2139a2.0742,2.0742,0,0,0,2.0713,2.0723H17.9287A2.0739,2.0739,0,0,0,20,22.2139V14.9819a1.5,1.5,0,1,1,3,0v7.2319A5.0778,5.0778,0,0,1,17.9287,27.2861Z"/><path class="cls-1" d="M12.2144,17.2856a1.5,1.5,0,0,1-1.0605-2.5605L25.4395,0.4395a1.5,1.5,0,0,1,2.1211,2.1211L13.2749,16.8462A1.4951,1.4951,0,0,1,12.2144,17.2856Z"/><path class="cls-1" d="M26.5,11.5713a1.5,1.5,0,0,1-1.5-1.5V3H17.9287a1.5,1.5,0,0,1,0-3H26.5A1.5,1.5,0,0,1,28,1.5v8.5713A1.5,1.5,0,0,1,26.5,11.5713Z"/></svg>