<svg id="Layer_1" data-name="Layer 1" xmlns="http://www.w3.org/2000/svg" viewBox="0 0 770 97.7541"><defs><style>.cls-1{fill:#589e9e;}</style></defs><title>interact_logo_WEB</title><g id="parliament"><path d="M351.8158,57.9482c0-4.5365-.0726-8.1955-0.2974-11.5642h5.7839l0.37,6.0776h0.1414c2.5638-4.3914,6.8138-6.8827,12.5216-6.8827,8.6342,0,15.0781,7.2454,15.0781,18.0045,0,12.7356-7.8328,19.0345-16.1043,19.0345-4.7614,0-8.7829-2.0489-10.908-5.5628H358.26V96.3035h-6.444V57.9482m6.444,9.4464a10.2072,10.2072,0,0,0,.29,2.6364,9.8559,9.8559,0,0,0,9.5915,7.5354c6.8066,0,10.7556-5.5664,10.7556-13.6857,0-7.1039-3.6589-13.178-10.4654-13.178a10.29,10.29,0,0,0-9.8092,7.9054,17.2579,17.2579,0,0,0-.3625,2.6363v6.15Z"/><path d="M418.4271,73.32a59.4035,59.4035,0,0,0,.5149,8.4928h-5.7839l-0.5874-4.4639h-0.2212a13.0945,13.0945,0,0,1-10.8281,5.2689c-7.1764,0-10.839-5.0513-10.839-10.1717,0-8.5653,7.6152-13.25,21.3008-13.178V58.532c0-2.9263-.7941-8.2679-8.0612-8.1953a17.0676,17.0676,0,0,0-9.287,2.6326L393.17,48.654a22.9734,22.9734,0,0,1,11.7093-3.0751c10.9115,0,13.5478,7.39,13.5478,14.4907V73.32m-6.2879-9.5843c-7.035-.1523-15.0166,1.0951-15.0166,7.9742,0,4.2465,2.7814,6.15,6.0052,6.15a8.9366,8.9366,0,0,0,8.7067-5.929,6.7176,6.7176,0,0,0,.3047-2.0489V63.7357Z"/><path d="M428.8164,57.44c0-4.1774-.0689-7.76-0.29-11.0565h5.6317l0.3046,6.9552h0.21c1.61-4.7613,5.5627-7.76,9.8889-7.76A6.7449,6.7449,0,0,1,446.31,45.8v6.0015a20.9154,20.9154,0,0,0-2.2664-.145c-4.54,0-7.76,3.4377-8.6341,8.1953a19.95,19.95,0,0,0-.2249,3.0751V81.8128h-6.4366L428.8164,57.44"/><rect x="452.9749" y="29.837" width="6.4476" height="51.9757"/><path d="M473.1769,39.8675a4.2122,4.2122,0,1,1,.0689,0h-0.0689m3.3616,41.9453h-6.4293V46.384h6.4293V81.8128Z"/><path d="M512.1922,73.32a58.84,58.84,0,0,0,.5186,8.4928h-5.7876l-0.5874-4.4639h-0.2176a13.0853,13.0853,0,0,1-10.839,5.2689c-7.1728,0-10.8281-5.0513-10.8281-10.1717,0-8.5653,7.6152-13.25,21.2972-13.178V58.532c0-2.9263-.8013-8.2679-8.0539-8.1953a17.062,17.062,0,0,0-9.2906,2.6326l-1.4686-4.3153a22.991,22.991,0,0,1,11.7166-3.0751c10.9079,0,13.5405,7.39,13.5405,14.4907V73.32m-6.2879-9.5843c-7.035-.1523-15.0166,1.0951-15.0166,7.9742,0,4.2465,2.785,6.15,6.016,6.15a8.9424,8.9424,0,0,0,8.7032-5.929,6.7066,6.7066,0,0,0,.2974-2.0489V63.7357Z"/><path d="M522.5126,55.9718c0-3.7314-.1487-6.6579-0.2974-9.5879h5.6461l0.29,5.7115h0.2176a12.25,12.25,0,0,1,11.1979-6.5165,10.4474,10.4474,0,0,1,9.9578,7.1h0.1414a14.0366,14.0366,0,0,1,4.0324-4.609,11.8682,11.8682,0,0,1,7.76-2.4913c4.7541,0,11.7093,3.0752,11.7093,15.3683V81.8128h-6.2989V61.7558c0-6.879-2.5638-10.9079-7.6769-10.9079-3.746,0-6.5237,2.7089-7.6914,5.7839a11.2529,11.2529,0,0,0-.5077,3.22V81.8128h-6.3061V60.5845c0-5.7077-2.4768-9.7366-7.3868-9.7366-3.9526,0-6.9479,3.2238-7.9814,6.44a8.812,8.812,0,0,0-.5113,3.1549v21.37h-6.2952V55.9718"/><path d="M587.2274,65.1971c0.1414,8.71,5.628,12.2968,12.0756,12.2968a24.4551,24.4551,0,0,0,9.8091-1.7552l1.1677,4.5365a28.8511,28.8511,0,0,1-11.8617,2.27c-10.8317,0-17.417-7.249-17.417-17.8632,0-10.7591,6.3677-19.1722,16.6845-19.1722,11.5752,0,14.57,10.1681,14.57,16.6845a16.4,16.4,0,0,1-.2176,3.0752l-24.8111-.0726M606.03,60.5845c0.08-4.0251-1.679-10.4691-8.8591-10.4691-6.5817,0-9.3631,6.0015-9.8744,10.4691H606.03Z"/><path d="M620.2377,55.9718c0-3.7314-.0762-6.6579-0.2974-9.5879h5.715l0.3627,5.7839h0.1486a13.0964,13.0964,0,0,1,11.7093-6.589c4.9064,0,12.5216,2.9264,12.5216,15.0745V81.8128H643.95V61.39c0-5.7115-2.1177-10.5417-8.1917-10.5417a9.2942,9.2942,0,0,0-8.6416,6.5927,9.4359,9.4359,0,0,0-.4388,3.0025v21.37h-6.44V55.9718"/><path d="M668.33,37.8912V46.384h9.2289v4.9027H668.33v19.107c0,4.3914,1.2474,6.8791,4.83,6.8791a12.0065,12.0065,0,0,0,3.7315-.4388l0.29,4.9027a17.4153,17.4153,0,0,1-5.7078.8812,9.1922,9.1922,0,0,1-6.9552-2.7089c-1.755-1.9726-2.484-5.1239-2.484-9.2978V51.2867h-5.49V46.384h5.49V39.8675l6.2953-1.9764"/></g><g id="_.uk" data-name=".uk"><path d="M687.5017,82.6178a4.2987,4.2987,0,0,1-4.2428-4.6125,4.3667,4.3667,0,0,1,4.3914-4.6091,4.2685,4.2685,0,0,1,4.3188,4.6091,4.3252,4.3252,0,0,1-4.3878,4.6125h-0.08"/><path d="M729.5922,72.1524c0,3.6589.0724,6.8827,0.2972,9.66h-5.715l-0.359-5.78h-0.1487a13.23,13.23,0,0,1-11.7093,6.5854c-5.5663,0-12.2241-3.1477-12.2241-15.5169V46.384H706.17V65.9261c0,6.7377,2.125,11.3467,7.9053,11.3467a9.26,9.26,0,0,0,8.4929-5.9217,8.8393,8.8393,0,0,0,.58-3.3036V46.384h6.4441V72.1524"/><path d="M746.7193,62.6334H746.86c0.8849-1.2438,2.0562-2.8575,3.0825-4.0251l10.469-12.2242h7.6915L754.4105,60.9471,770,81.8128h-7.8329l-12.1553-17.058L746.7193,68.49V81.8128h-6.4368V29.8372h6.4368V62.6334"/></g><g id="icon"><path d="M52.1933,44.11a1.572,1.572,0,1,0,1.5774,1.5738A1.5763,1.5763,0,0,0,52.1933,44.11M52.157,56.4178a1.5775,1.5775,0,1,0,1.5738,1.5811A1.59,1.59,0,0,0,52.157,56.4178ZM38.5,45.684A1.5756,1.5756,0,1,0,40.0887,44.11,1.5748,1.5748,0,0,0,38.5,45.684Zm1.5883,10.7338a1.5775,1.5775,0,1,0,0,3.155A1.5776,1.5776,0,0,0,40.0887,56.4178ZM38.5,70.3283a1.5756,1.5756,0,1,0,3.1512,0A1.5756,1.5756,0,0,0,38.5,70.3283Zm13.6929-1.57a1.5756,1.5756,0,1,0,1.5774,1.57A1.5779,1.5779,0,0,0,52.1933,68.7581ZM62.8038,45.7094a1.5756,1.5756,0,1,0,1.5774-1.57A1.58,1.58,0,0,0,62.8038,45.7094ZM64.3377,56.45a1.5774,1.5774,0,1,0,1.5811,1.5739A1.5763,1.5763,0,0,0,64.3377,56.45Zm-1.5339,13.9a1.5756,1.5756,0,1,0,1.5774-1.57A1.5747,1.5747,0,0,0,62.8038,70.35ZM26.3958,45.684A1.5739,1.5739,0,1,0,27.97,44.1247,1.5632,1.5632,0,0,0,26.3958,45.684Zm-12.1155,0a1.5794,1.5794,0,1,0,1.5847-1.5593A1.5678,1.5678,0,0,0,14.28,45.684ZM15.865,56.407a1.5829,1.5829,0,1,0,1.5738,1.5883A1.5825,1.5825,0,0,0,15.865,56.407Zm12.0683,0a1.5829,1.5829,0,1,0,1.5811,1.5883A1.5809,1.5809,0,0,0,27.9334,56.407ZM15.865,68.74a1.5829,1.5829,0,1,0,1.5738,1.5811A1.59,1.59,0,0,0,15.865,68.74Zm12.1046,0a1.5829,1.5829,0,1,0,1.5738,1.5811A1.5856,1.5856,0,0,0,27.97,68.74ZM25.3224,35.61H18.077V43.298h7.2454V35.61Zm0,12.4237H18.077v7.6914h7.2454V48.0339Zm0,12.362H18.077v7.6479h7.2454V60.3959ZM37.6373,35.61H29.8951V43.298h7.7422V35.61Zm0,12.4237H29.9387v7.753h7.6986v-7.753ZM37.572,60.3959H29.9387v7.7022H37.572V60.3959ZM49.8905,35.6646H42.37V43.298h7.521V35.6646Zm0,12.3112H42.37v7.8111h7.521V47.9758Zm0,12.3766H42.37v7.6914h7.521V60.3524ZM61.9226,35.61H54.7353V43.298h7.1873V35.61Zm0,12.4237H54.7932v7.6914h7.1293V48.0339Zm0,12.3185H54.7932v7.6914h7.1293V60.3524ZM14.28,33.3546a1.5793,1.5793,0,1,0,1.5847-1.5738A1.5786,1.5786,0,0,0,14.28,33.3546Zm12.0756,0a1.5793,1.5793,0,1,0,1.5774-1.5738A1.5771,1.5771,0,0,0,26.3559,33.3546ZM38.5,33.3438a1.5756,1.5756,0,1,0,3.1512,0A1.5756,1.5756,0,0,0,38.5,33.3438Zm12.0755,0a1.5774,1.5774,0,1,0,3.1549,0A1.5774,1.5774,0,0,0,50.5759,33.3438Zm13.7618-1.5412A1.5757,1.5757,0,1,0,65.9188,33.38,1.5794,1.5794,0,0,0,64.3377,31.8026ZM16.3908,30.5588H63.5943V29.2642s-21.4313-9.6423-47.218.018ZM30.0185,11.51s-2.3753-1.6354-3.7206.671c0,0-.6637.6709-0.9647,3.7133,0,0,2.3825.7108,1.7733,3.949,0,0,6.0632,4.83,9.3776-.417,0,0,1.9256-1.9328,2.2991-8.7974,0,0-2.8612-.9356-5.2473,3.0751,0,0-1.4795,2.9011-1.9183-.0326,0,0-.1559-6.5744-1.12-8.0612a0.678,0.678,0,0,1,.5548-1.0407,1.3867,1.3867,0,0,1,.6347.7325c0.2647,0.6092,2.0053,3.6916,6.462,2.6073,0,0,1.3672-4.9753-6.1683-6.2772A1.4039,1.4039,0,0,1,32.9122,0a16.7331,16.7331,0,0,0,6.02.9609C42.83,1.0081,44.4656.8449,46.888,0.1015c0,0,1.436-.3227,1.2184,1.6065,0,0-7.1257.78-6.0848,6.2408,0,0,4.4131,1.1931,6.4583-2.7524a1.0334,1.0334,0,0,1,.8522-0.6273s0.8921,0.3372.0761,1.4541a31.4083,31.4083,0,0,0-.9682,7.72,0.8721,0.8721,0,0,1-.3337,1.077s-0.5947.6346-1.2619-.7833c0,0-2.1795-4.2283-5.4612-3.4087,0,0,.1016,7.39,3.38,10.0956,0,0,2.7814,3.1259,8.2171-.9284,0,0-.6382-2.9263,1.7842-3.9019,0,0-.116-7.1293-4.7178-4.3406,0,0,.5875-8.3187,5.9435-0.4424,0,0,.3662-6.9879,4.4894-8.1773,0,0,1.8893,3.3434-.7435,9.4792,0,0,9.2906-5.0261,4.83,3.8257,0,0-2.7922-4.99-5.8709.631,0,0,1.4868,2.6726-.5259,3.4449,0,0,0,7.4375,8.33,2.9772,0,0,2.2664-.6709,4.6452-3.7932a1.3293,1.3293,0,0,0,.185-1.9291c-0.82-1.2221-2.2664-.3771-2.4152-0.2539-0.1486.1088-2.2736,1.44-2.785,1.7407,0,0-1.5919.4568-.4859-1.0372,0,0,.3047-0.301.5947-0.66,0.6455-.79,1.4288-2.6834,1.2584-7.2924,0,0-.0689-0.8522.5186-0.8522a0.6424,0.6424,0,0,1,.7506.5947c0.1051,0.7.2974,5.7949,4.6125,5.9472,0,0,3.59-3.4958-.5258-8.181a1.109,1.109,0,0,1-.5258-1.3381,0.9071,0.9071,0,0,1,1.3417-.1849L79.43,9.4139,67.05,30.3122v61.97H64.7149L59.58,80.3587h2.2374V72.6673h-7.133v7.5753h2.4515l-4.794,11.9269L47.334,80.3587h2.5565v-7.8H42.3189v7.6841h2.6689L39.969,92.2819,34.9539,80.4638h2.5638V72.5585H29.8335v7.8h2.7814L27.7158,92.1695,22.6933,80.3587h2.4514V72.6673h-7.14v7.5753h2.35L15.2268,92.2819H12.8914V30.8743L0.4025,9.4719s5.0151-2.9336,5.61-3.1948c0.5947-.2538,2.8612-0.8594,1.3055,1.1858C5.7513,9.5117,4.42,11.4373,5.9435,14.6358c0,0,.5729,1.8131,2.5638.6309,1.7406-1.0372,2.3281-1.737,2.7814-4.9427,0,0,0-1.4.8956-1.07,0,0,.4026-0.2611.4026,1.2547,0,1.53-.0363,4.87,1.1531,6.6832l0.7433,0.8993s1.0408,1.7044-.78.8159c0,0-3.1912-2.6326-4.4168-1.8168a1.6169,1.6169,0,0,0-.1559,2.6762,11.8852,11.8852,0,0,0,6.3932,4.3408s6.2046,2.6036,6.3532-3.7932c0,0-1.82-.5476-0.4713-3.38,0,0-2.4587-5.686-5.9145-.66,0,0-2.68-5.0588.2974-5.3235a9.161,9.161,0,0,1,4.6017,1.6029s-2.484-6.0886-.78-9.6206c0,0,4.2029.8921,4.4205,8.4057,0,0,4.8737-8.29,6.0993.17H30.0185Z"/><path d="M15.4915,21.0071A1.5756,1.5756,0,1,1,17.069,22.581a1.58,1.58,0,0,1-1.5774-1.5739"/><path d="M30.2,18.1024a1.5817,1.5817,0,0,1,1.581-1.5665,1.5757,1.5757,0,0,1,0,3.1512A1.5808,1.5808,0,0,1,30.2,18.1024"/><path d="M46.7611,18.1713a1.572,1.572,0,1,1,3.1439,0,1.572,1.572,0,0,1-3.1439,0"/><path d="M61.4693,20.9563a1.5756,1.5756,0,1,1,1.5665,1.5775,1.58,1.58,0,0,1-1.5665-1.5775"/><path d="M49.586,5.7113A8.116,8.116,0,0,0,49.14,7.01c-0.08.4424-.8993-0.116-0.8993-0.116L48.5234,6.06l0.573-.5947,0.49,0.2466"/><path d="M12.4092,9.3413l-0.5367.214-0.3337-.1269a0.52,0.52,0,0,1,.87-0.0871"/><path d="M1.5883,33.0428a3.5048,3.5048,0,1,0,3.4994-3.5067,3.5085,3.5085,0,0,0-3.4994,3.5067M0,33.0463a5.0859,5.0859,0,1,1,5.0876,5.08A5.094,5.094,0,0,1,0,33.0463Z"/><path d="M2.4875,42.9644a0.6376,0.6376,0,0,0-.6382.6309V51.022a0.6323,0.6323,0,0,0,.6382.6274H7.4592a0.63,0.63,0,0,0,.6382-0.6274V43.5953a0.6352,0.6352,0,0,0-.6382-0.6309H2.4875M7.5028,53.89H2.3461A2.2193,2.2193,0,0,1,.1268,51.682V42.9426a2.2171,2.2171,0,0,1,2.2193-2.2084H7.5028a2.2209,2.2209,0,0,1,2.2156,2.2084V51.682A2.2232,2.2232,0,0,1,7.5028,53.89Z"/><path d="M2.43,58.5683a0.6193,0.6193,0,0,0-.6309.6274v7.43a0.6231,0.6231,0,0,0,.6309.6346H7.4012a0.6353,0.6353,0,0,0,.6455-0.6346v-7.43a0.6316,0.6316,0,0,0-.6455-0.6274H2.43M7.4448,69.487H2.2809A2.2092,2.2092,0,0,1,.0725,67.2823V58.55a2.2124,2.2124,0,0,1,2.2084-2.2084H7.4448A2.2077,2.2077,0,0,1,9.6531,58.55v8.7322A2.2045,2.2045,0,0,1,7.4448,69.487Z"/><path d="M2.43,74.0635a0.626,0.626,0,0,0-.6309.6274v7.423a0.6231,0.6231,0,0,0,.6309.6346H7.4012a0.6353,0.6353,0,0,0,.6455-0.6346v-7.423a0.6386,0.6386,0,0,0-.6455-0.6274H2.43M7.4448,84.9785H2.2809A2.21,2.21,0,0,1,.0725,82.77V74.038a2.2154,2.2154,0,0,1,2.2084-2.212H7.4448a2.2107,2.2107,0,0,1,2.2083,2.212V82.77A2.2053,2.2053,0,0,1,7.4448,84.9785Z"/><path d="M1.5883,92.6772a3.5048,3.5048,0,1,0,3.4994-3.5066,3.4984,3.4984,0,0,0-3.4994,3.5066M0,92.6772a5.0859,5.0859,0,1,1,5.0876,5.0769A5.087,5.087,0,0,1,0,92.6772Z"/><rect x="4.0796" y="81.258" width="1.6717" height="6.676"/><rect x="4.0796" y="65.2515" width="1.6717" height="10.364"/><rect x="4.0796" y="50.0971" width="1.6717" height="10.1464"/><rect x="4.0796" y="34.6564" width="1.6717" height="9.9723"/><rect x="6.5962" y="32.2087" width="6.5709" height="1.679"/><path d="M71.6845,33.0428a3.5048,3.5048,0,1,0,3.5067-3.5067,3.51,3.51,0,0,0-3.5067,3.5067m-1.581.0035a5.0859,5.0859,0,1,1,5.0876,5.08A5.0893,5.0893,0,0,1,70.1035,33.0463Z"/><path d="M77.7876,42.9644h-4.979a0.6336,0.6336,0,0,0-.6309.6309V51.022a0.6282,0.6282,0,0,0,.6309.6274h4.979a0.6216,0.6216,0,0,0,.631-0.6274V43.5953a0.6268,0.6268,0,0,0-.631-0.6309M72.7761,53.89a2.2162,2.2162,0,0,1-2.2048-2.2083V42.9426a2.2139,2.2139,0,0,1,2.2048-2.2084h5.16a2.2108,2.2108,0,0,1,2.2121,2.2084V51.682A2.2131,2.2131,0,0,1,77.9362,53.89h-5.16Z"/><path d="M77.8456,58.5683h-4.979a0.6222,0.6222,0,0,0-.6237.6274v7.43a0.6261,0.6261,0,0,0,.6237.6346h4.979a0.6231,0.6231,0,0,0,.6309-0.6346v-7.43a0.6193,0.6193,0,0,0-.6309-0.6274M72.83,69.487a2.2045,2.2045,0,0,1-2.2084-2.2047V58.55A2.2077,2.2077,0,0,1,72.83,56.3417H77.987A2.2077,2.2077,0,0,1,80.1953,58.55v8.7322A2.2045,2.2045,0,0,1,77.987,69.487H72.83Z"/><path d="M77.8456,74.0635h-4.979a0.6292,0.6292,0,0,0-.6237.6274v7.423a0.6261,0.6261,0,0,0,.6237.6346h4.979a0.6231,0.6231,0,0,0,.6309-0.6346v-7.423a0.626,0.626,0,0,0-.6309-0.6274M72.83,84.9785A2.2053,2.2053,0,0,1,70.622,82.77V74.038A2.2107,2.2107,0,0,1,72.83,71.826H77.987a2.2107,2.2107,0,0,1,2.2083,2.212V82.77a2.2053,2.2053,0,0,1-2.2083,2.2083H72.83Z"/><path d="M71.6845,92.6772a3.5048,3.5048,0,1,0,3.5067-3.5066,3.5,3.5,0,0,0-3.5067,3.5066m-1.581,0a5.0859,5.0859,0,1,1,5.0876,5.0769A5.0824,5.0824,0,0,1,70.1035,92.6772Z"/><rect x="74.5239" y="81.258" width="1.6717" height="6.676"/><rect x="74.5239" y="65.2515" width="1.6717" height="10.364"/><rect x="74.5239" y="50.0971" width="1.6717" height="10.1464"/><rect x="74.5239" y="34.6564" width="1.6717" height="9.9723"/><rect x="66.6694" y="32.2087" width="7.0169" height="1.679"/></g><path class="cls-1" d="M111.5938,36.8467a3.9525,3.9525,0,0,1-7.9048,0,3.8884,3.8884,0,0,1,3.9888-3.9883A3.7875,3.7875,0,0,1,111.5938,36.8467Zm-7.1069,44.9658V46.71h6.3823V81.8125h-6.3823Z"/><path class="cls-1" d="M121.457,56.2109c0-3.626-.0723-6.6-0.29-9.501h5.6572l0.3623,5.8027h0.1455a12.9056,12.9056,0,0,1,11.6035-6.6c4.8594,0,12.4023,2.9,12.4023,14.9395v20.96h-6.3828V61.5781c0-5.6572-2.1025-10.3711-8.1221-10.3711a9.0678,9.0678,0,0,0-8.5586,6.5273,9.18,9.18,0,0,0-.4346,2.9736V81.8125H121.457V56.2109Z"/><path class="cls-1" d="M169.1064,36.63V46.71h9.1377v4.8594h-9.1377v18.93c0,4.3506,1.2324,6.8174,4.7861,6.8174a14.19,14.19,0,0,0,3.6992-.4355l0.29,4.7861a15.6213,15.6213,0,0,1-5.6572.8711,8.8442,8.8442,0,0,1-6.89-2.6836c-1.8135-1.8857-2.4658-5.0049-2.4658-9.1387V51.5693H157.43V46.71h5.4395V38.2979Z"/><path class="cls-1" d="M188.543,65.4219c0.1455,8.6309,5.6572,12.1846,12.04,12.1846a23.0742,23.0742,0,0,0,9.7178-1.8135l1.0879,4.5693a28.4413,28.4413,0,0,1-11.6768,2.1758c-10.8057,0-17.2607-7.1074-17.2607-17.6963s6.2373-18.9287,16.4629-18.9287c11.459,0,14.5059,10.08,14.5059,16.5352a24.1072,24.1072,0,0,1-.2178,2.9736H188.543Zm18.7119-4.5693c0.0723-4.0615-1.668-10.3711-8.8477-10.3711-6.4551,0-9.2832,5.9473-9.791,10.3711h18.6387Z"/><path class="cls-1" d="M221.3242,57.6621c0-4.1348-.0723-7.6885-0.29-10.9521h5.585l0.2178,6.8906h0.29c1.5947-4.7148,5.4395-7.6875,9.7178-7.6875a6.927,6.927,0,0,1,1.8135.2168v6.02a9.6256,9.6256,0,0,0-2.1758-.2168c-4.4971,0-7.6875,3.4082-8.5576,8.1953a17.8957,17.8957,0,0,0-.291,2.9727V81.8125h-6.31v-24.15Z"/><path class="cls-1" d="M264.1152,81.8125l-0.5078-4.4238H263.39A13.0741,13.0741,0,0,1,252.6563,82.61c-7.1074,0-10.7344-5.0039-10.7344-10.0811,0-8.4854,7.543-13.127,21.1055-13.0547V58.75c0-2.9014-.7979-8.123-7.9785-8.123a17.4947,17.4947,0,0,0-9.1377,2.61l-1.45-4.2061a21.7824,21.7824,0,0,1,11.5313-3.1182c10.7334,0,13.3447,7.3242,13.3447,14.3594v13.127a49.3892,49.3892,0,0,0,.58,8.4131h-5.8018Zm-0.9434-17.9141c-6.9619-.1445-14.8672,1.0879-14.8672,7.9053,0,4.1338,2.7559,6.0928,6.02,6.0928a8.7345,8.7345,0,0,0,8.4854-5.875,6.652,6.652,0,0,0,.3623-2.03V63.8984Z"/><path class="cls-1" d="M304.6563,80.5068a23.51,23.51,0,0,1-10.0811,2.0313c-10.5889,0-17.4785-7.1807-17.4785-17.9141,0-10.8066,7.3975-18.6387,18.8564-18.6387a21.343,21.343,0,0,1,8.8486,1.8125l-1.4512,4.9316a14.7994,14.7994,0,0,0-7.3975-1.668c-8.05,0-12.4014,5.9473-12.4014,13.2725,0,8.123,5.2217,13.127,12.1836,13.127a18.1308,18.1308,0,0,0,7.833-1.74Z"/><path class="cls-1" d="M320.7568,36.63V46.71h9.1377v4.8594h-9.1377v18.93c0,4.3506,1.2324,6.8174,4.7861,6.8174a14.19,14.19,0,0,0,3.6992-.4355l0.29,4.7861a15.6213,15.6213,0,0,1-5.6572.8711,8.8442,8.8442,0,0,1-6.89-2.6836c-1.8135-1.8857-2.4658-5.0049-2.4658-9.1387V51.5693H309.08V46.71H314.52V38.2979Z"/><path class="cls-1" d="M335.334,78.041a4.2877,4.2877,0,0,1,4.3516-4.5693A4.577,4.577,0,1,1,335.334,78.041Z"/></svg>