<svg id="Layer_1" data-name="Layer 1" xmlns="http://www.w3.org/2000/svg" viewBox="0 0 770 97"><defs><style>.cls-1{fill:#589e9e;}</style></defs><title>interact_logo_RGB_WEB</title><g id="_.uk" data-name=".uk"><path d="M688.118,82.0006a4.2666,4.2666,0,0,1-4.2111-4.5781,4.3341,4.3341,0,0,1,4.3586-4.5747,4.2366,4.2366,0,0,1,4.2866,4.5747,4.2929,4.2929,0,0,1-4.355,4.5781H688.118"/><path d="M729.8941,71.6134c0,3.6316.0718,6.8313,0.295,9.5883h-5.6723L724.16,75.4645h-0.1476a13.1308,13.1308,0,0,1-11.6218,6.5362c-5.5247,0-12.1328-3.1241-12.1328-15.401V46.0375h6.3885V65.4336c0,6.6873,2.1091,11.2619,7.8462,11.2619a9.1913,9.1913,0,0,0,8.4295-5.8775,8.7732,8.7732,0,0,0,.5758-3.2789V46.0375h6.3959V71.6134"/><path d="M746.8932,62.1654h0.14c0.8783-1.2345,2.0408-2.8362,3.0595-3.9951l10.3908-12.1329h7.634L754.527,60.4918,770,81.2016h-7.7744L750.1611,64.2711l-3.2679,3.7072V81.2016h-6.3887V29.6143h6.3887V62.1654"/></g><g id="parliament"><path d="M354.94,57.5153c0-4.5026-.0721-8.1342-0.2951-11.4778h5.7407l0.3671,6.0322h0.14c2.5446-4.3586,6.7629-6.8313,12.4281-6.8313,8.57,0,14.9654,7.1913,14.9654,17.87,0,12.64-7.7743,18.8923-15.984,18.8923-4.7258,0-8.7173-2.0336-10.8265-5.5213h-0.14V95.5841H354.94V57.5153m6.3958,9.3759a10.131,10.131,0,0,0,.2879,2.6167,9.7822,9.7822,0,0,0,9.52,7.4792c6.7558,0,10.6752-5.5248,10.6752-13.5835,0-7.0508-3.6316-13.08-10.3873-13.08a10.2133,10.2133,0,0,0-9.7359,7.8463,17.129,17.129,0,0,0-.36,2.6166v6.1042Z"/><path d="M421.0536,72.7723a58.96,58.96,0,0,0,.5111,8.4294H415.824l-0.583-4.4306h-0.22a12.9967,12.9967,0,0,1-10.7472,5.23c-7.1228,0-10.7581-5.0136-10.7581-10.0957,0-8.5013,7.5583-13.1515,21.1417-13.08V58.0947c0-2.9045-.7882-8.2062-8.001-8.1341a16.94,16.94,0,0,0-9.2176,2.613l-1.454-4.2831a22.8018,22.8018,0,0,1,11.6218-3.0521c10.83,0,13.4466,7.3352,13.4466,14.3824V72.7723M414.8127,63.26c-6.9825-.1511-14.9044,1.087-14.9044,7.9147,0,4.2147,2.7606,6.1043,5.96,6.1043a8.87,8.87,0,0,0,8.6417-5.8847,6.6674,6.6674,0,0,0,.3024-2.0336V63.26Z"/><path d="M431.3653,57.0114c0-4.1462-.0684-7.7022-0.288-10.9739h5.59l0.3023,6.9033h0.2088c1.598-4.7257,5.5212-7.7023,9.815-7.7023a6.6945,6.6945,0,0,1,1.7348.22v5.9567a20.7592,20.7592,0,0,0-2.25-.1439c-4.5061,0-7.7022,3.412-8.57,8.1341a19.8008,19.8008,0,0,0-.2232,3.0521V81.2016h-6.3886l0.0684-24.19"/><rect x="455.3432" y="29.6141" width="6.3994" height="51.5874"/><path d="M475.3943,39.57a4.1807,4.1807,0,1,1,.0684,0h-0.0684m3.3365,41.6319h-6.3813V46.0375h6.3813V81.2016Z"/><path d="M514.1182,72.7723a58.4,58.4,0,0,0,.5147,8.4294h-5.7444l-0.583-4.4306H508.09a12.9876,12.9876,0,0,1-10.7581,5.23c-7.1192,0-10.7472-5.0136-10.7472-10.0957,0-8.5013,7.5583-13.1515,21.1381-13.08V58.0947c0-2.9045-.7953-8.2062-7.9937-8.1341a16.9346,16.9346,0,0,0-9.2212,2.613L489.05,48.29a22.8192,22.8192,0,0,1,11.6291-3.0521c10.8264,0,13.4393,7.3352,13.4393,14.3824V72.7723M507.8772,63.26c-6.9825-.1511-14.9044,1.087-14.9044,7.9147,0,4.2147,2.7642,6.1043,5.9711,6.1043a8.8756,8.8756,0,0,0,8.6382-5.8847,6.6565,6.6565,0,0,0,.2951-2.0336V63.26Z"/><path d="M524.3615,55.5537c0-3.7035-.1476-6.6081-0.2951-9.5162H529.67l0.288,5.6688h0.2159a12.1587,12.1587,0,0,1,11.1143-6.4679,10.3693,10.3693,0,0,1,9.8834,7.0473h0.14a13.9317,13.9317,0,0,1,4.0023-4.5746,11.78,11.78,0,0,1,7.7023-2.4727c4.7186,0,11.6218,3.0522,11.6218,15.2534v20.71H568.387V61.2944c0-6.8276-2.5446-10.8264-7.62-10.8264a8.39,8.39,0,0,0-7.6339,5.7407,11.1689,11.1689,0,0,0-.5039,3.1961V81.2016h-6.259v-21.07c0-5.6651-2.4583-9.6639-7.3316-9.6639-3.9231,0-6.896,3.2-7.9218,6.3922a8.7461,8.7461,0,0,0-.5075,3.1313v21.21h-6.2482V55.5537"/><path d="M588.5928,64.71c0.14,8.6453,5.586,12.205,11.9854,12.205a24.2724,24.2724,0,0,0,9.7358-1.742l1.159,4.5026A28.6356,28.6356,0,0,1,599.7,81.9288c-10.7508,0-17.2869-7.1949-17.2869-17.73,0-10.6788,6.32-19.0289,16.56-19.0289,11.4887,0,14.4616,10.0921,14.4616,16.56a16.277,16.277,0,0,1-.2159,3.0522L588.5928,64.71m18.662-4.5782c0.0791-3.9951-1.6665-10.3909-8.7929-10.3909-6.5326,0-9.2931,5.9567-9.8006,10.3909h18.5935Z"/><path d="M621.3565,55.5537c0-3.7035-.0757-6.6081-0.2951-9.5162h5.6723l0.36,5.7407h0.1475a12.9985,12.9985,0,0,1,11.6218-6.54c4.87,0,12.4281,2.9046,12.4281,14.9619V81.2016h-6.3994V60.931c0-5.6688-2.1019-10.4629-8.13-10.4629a9.2248,9.2248,0,0,0-8.577,6.5434,9.3654,9.3654,0,0,0-.4355,2.98v21.21h-6.3921V55.5537"/><path d="M669.0891,37.6081v8.4294h9.16v4.8661h-9.16V69.8678c0,4.3586,1.2381,6.8277,4.794,6.8277a11.9168,11.9168,0,0,0,3.7037-.4355l0.2879,4.8661a17.2852,17.2852,0,0,1-5.6652.8746,9.1235,9.1235,0,0,1-6.9033-2.6886c-1.7419-1.9579-2.4654-5.0857-2.4654-9.2283v-19.18h-5.4491V46.0375h5.4491V39.57l6.2483-1.9616"/></g><g id="interact-"><path class="cls-1" d="M110.764,36.5609a3.9245,3.9245,0,0,1-7.8487,0,3.86,3.86,0,0,1,3.9595-3.9595A3.7613,3.7613,0,0,1,110.764,36.5609Zm-7.0561,44.64V46.3532h6.3355V81.2012H103.708Z"/><path class="cls-1" d="M120.5511,55.7853c0-3.5992-.0721-6.5517-0.2882-9.4321h5.615l0.36,5.7608h0.1441a12.8147,12.8147,0,0,1,11.52-6.5534c4.8241,0,12.3125,2.88,12.3125,14.8327V81.2012h-6.3355V61.1138c0-5.6167-2.0878-10.2967-8.0648-10.2967a9.0012,9.0012,0,0,0-8.4954,6.48,9.1135,9.1135,0,0,0-.4323,2.9525v20.952h-6.3355V55.7853Z"/><path class="cls-1" d="M167.8451,36.3447V46.3532h9.0718v4.8241h-9.0718V69.97c0,4.32,1.2249,6.7678,4.7521,6.7678a14.09,14.09,0,0,0,3.673-.4323l0.2882,4.7521a15.5074,15.5074,0,0,1-5.6167.8647,8.78,8.78,0,0,1-6.84-2.6643c-1.8-1.8717-2.4481-4.9682-2.4481-9.0718V51.1774h-5.4006V46.3532h5.4006V38.002Z"/><path class="cls-1" d="M187.1381,64.9292c0.1441,8.5674,5.6167,12.0963,11.9522,12.0963a22.93,22.93,0,0,0,9.6483-1.8l1.0791,4.5359a28.24,28.24,0,0,1-11.592,2.16c-10.7273,0-17.1349-7.0561-17.1349-17.569,0-10.5111,6.1914-18.7921,16.344-18.7921,11.3758,0,14.3986,10.0085,14.3986,16.4161a23.9547,23.9547,0,0,1-.2144,2.9525H187.1381Zm18.576-4.5359c0.0721-4.0315-1.6555-10.295-8.7836-10.295-6.4076,0-9.2159,5.9032-9.72,10.295h18.5039Z"/><path class="cls-1" d="M219.6751,57.2247c0-4.1036-.0721-7.6307-0.2882-10.8714H224.93l0.2162,6.84h0.2882c1.5852-4.68,5.4006-7.6325,9.6483-7.6325a6.8446,6.8446,0,0,1,1.8.2162v5.977a9.498,9.498,0,0,0-2.16-.2162c-4.4639,0-7.6325,3.383-8.4954,8.1351a17.844,17.844,0,0,0-.2882,2.9525v18.576h-6.2635V57.2247Z"/><path class="cls-1" d="M262.1485,81.2012l-0.5026-4.3918H261.43a12.98,12.98,0,0,1-10.657,5.1844c-7.0561,0-10.6553-4.9682-10.6553-10.0085,0-8.4233,7.4884-13.0313,20.952-12.9592V58.3055c0-2.88-.7926-8.0648-7.9207-8.0648a17.37,17.37,0,0,0-9.0718,2.5922l-1.4393-4.1756a21.6319,21.6319,0,0,1,11.4479-3.0966c10.6553,0,13.2475,7.2722,13.2475,14.2562V72.85a49.0305,49.0305,0,0,0,.5764,8.3513h-5.7608Zm-0.9349-17.7834c-6.9119-.1441-14.7606,1.0791-14.7606,7.8469,0,4.1053,2.7363,6.0491,5.977,6.0491a8.67,8.67,0,0,0,8.4233-5.8329,6.6071,6.6071,0,0,0,.36-2.0158V63.4178Z"/><path class="cls-1" d="M302.39,79.906a23.3562,23.3562,0,0,1-10.0085,2.0158c-10.5111,0-17.351-7.1281-17.351-17.7851,0-10.7273,7.3443-18.5039,18.72-18.5039a21.1648,21.1648,0,0,1,8.7836,1.8014L301.0947,52.33A14.6911,14.6911,0,0,0,293.75,50.673c-7.9928,0-12.3125,5.9049-12.3125,13.1772,0,8.0631,5.1844,13.0313,12.0963,13.0313a18.0132,18.0132,0,0,0,7.7748-1.7275Z"/><path class="cls-1" d="M318.3649,36.3447V46.3532h9.0718v4.8241h-9.0718V69.97c0,4.32,1.2249,6.7678,4.7521,6.7678a14.09,14.09,0,0,0,3.673-.4323l0.2882,4.7521a15.5074,15.5074,0,0,1-5.6167.8647,8.78,8.78,0,0,1-6.84-2.6643c-1.8-1.8717-2.4481-4.9682-2.4481-9.0718V51.1774H306.773V46.3532h5.4006V38.002Z"/><path class="cls-1" d="M348.89,59.3845v4.68H331.1062v-4.68H348.89Z"/></g><g id="icon"><path d="M51.7906,43.77a1.56,1.56,0,1,0,1.5653,1.5616A1.5641,1.5641,0,0,0,51.7906,43.77m-0.036,12.2126a1.5653,1.5653,0,1,0,1.5616,1.5689A1.5773,1.5773,0,0,0,51.7546,55.9826ZM38.2034,45.3316a1.5634,1.5634,0,1,0,1.576-1.5616A1.5626,1.5626,0,0,0,38.2034,45.3316Zm1.576,10.651a1.5654,1.5654,0,1,0,0,3.1306A1.5654,1.5654,0,0,0,39.7794,55.9826Zm-1.576,13.8031a1.5635,1.5635,0,1,0,3.1269,0A1.5635,1.5635,0,0,0,38.2034,69.7857Zm13.5873-1.558a1.5634,1.5634,0,1,0,1.5653,1.558A1.5657,1.5657,0,0,0,51.7906,68.2277Zm10.5287-22.871a1.5635,1.5635,0,1,0,1.5653-1.558A1.568,1.568,0,0,0,62.3193,45.3567ZM63.8414,56.015A1.5653,1.5653,0,1,0,65.41,57.5767,1.5642,1.5642,0,0,0,63.8414,56.015ZM62.3193,69.8074a1.5635,1.5635,0,1,0,1.5653-1.558A1.5626,1.5626,0,0,0,62.3193,69.8074ZM26.1921,45.3316a1.5618,1.5618,0,1,0,1.5617-1.5473A1.5511,1.5511,0,0,0,26.1921,45.3316Zm-12.022,0a1.5672,1.5672,0,1,0,1.5725-1.5473A1.5557,1.5557,0,0,0,14.17,45.3316Zm1.5725,10.64a1.5707,1.5707,0,1,0,1.5616,1.576A1.57,1.57,0,0,0,15.7426,55.9718Zm11.9752,0a1.5707,1.5707,0,1,0,1.5689,1.576A1.5688,1.5688,0,0,0,27.7179,55.9718ZM15.7426,68.21a1.5707,1.5707,0,1,0,1.5616,1.5689A1.578,1.578,0,0,0,15.7426,68.21Zm12.0112,0a1.5707,1.5707,0,1,0,1.5616,1.5689A1.5734,1.5734,0,0,0,27.7539,68.21ZM25.1271,35.3355h-7.19v7.6284h7.19V35.3355Zm0,12.3278h-7.19v7.632h7.19v-7.632Zm0,12.2667h-7.19v7.5889h7.19V59.93Zm12.22-24.5945H29.6645v7.6284h7.6824V35.3355Zm0,12.3278H29.7078v7.6932h7.6392V47.6633ZM37.2822,59.93H29.7078v7.6428h7.5744V59.93ZM49.5057,35.3894H42.0427v7.5745h7.4629V35.3894Zm0,12.2163H42.0427v7.7509h7.4629V47.6057Zm0,12.2812H42.0427v7.632h7.4629v-7.632ZM61.4449,35.3355H54.313v7.6284h7.1318V35.3355Zm0,12.3278H54.3705v7.632h7.0743v-7.632Zm0,12.2235H54.3705v7.632h7.0743v-7.632ZM14.17,33.0973a1.5671,1.5671,0,1,0,1.5725-1.5616A1.5664,1.5664,0,0,0,14.17,33.0973Zm11.9825,0a1.5671,1.5671,0,1,0,1.5653-1.5616A1.5649,1.5649,0,0,0,26.1526,33.0973Zm12.0508-.0108a1.5635,1.5635,0,1,0,3.1269,0A1.5635,1.5635,0,0,0,38.2034,33.0866Zm11.9824,0a1.5653,1.5653,0,1,0,3.1305,0A1.5653,1.5653,0,0,0,50.1857,33.0866Zm13.6557-1.5294A1.5635,1.5635,0,1,0,65.41,33.1225,1.5673,1.5673,0,0,0,63.8414,31.5572ZM16.2644,30.323H63.1037V29.0385s-21.266-9.5679-46.8537.0179ZM29.7869,11.421s-2.357-1.6228-3.6919.6658c0,0-.6585.6657-0.9572,3.6846,0,0,2.3641.7053,1.76,3.9185,0,0,6.0164,4.793,9.3052-.4138,0,0,1.9107-1.9179,2.2813-8.73,0,0-2.8391-.9284-5.2068,3.0513,0,0-1.4681,2.8787-1.9035-.0324,0,0-.1547-6.5237-1.1118-7.999a0.6728,0.6728,0,0,1,.55-1.0327,1.376,1.376,0,0,1,.63.7268c0.2627,0.6045,1.99,3.6631,6.4121,2.5872,0,0,1.3566-4.9369-6.1207-6.2288A1.3931,1.3931,0,0,1,32.6583,0a16.604,16.604,0,0,0,5.9732.9535C42.5,1,44.1226.8384,46.5262,0.1007c0,0,1.4249-.32,1.209,1.5941,0,0-7.0707.7736-6.0379,6.1926,0,0,4.3791,1.1839,6.4085-2.7311a1.0255,1.0255,0,0,1,.8457-0.6224s0.8852,0.3346.0756,1.4429a31.1661,31.1661,0,0,0-.9607,7.6608,0.8653,0.8653,0,0,1-.3311,1.0687s-0.59.63-1.2522-.7772c0,0-2.1626-4.1957-5.4191-3.3824,0,0,.1008,7.3334,3.3537,10.0177,0,0,2.76,3.1017,8.1538-.9212,0,0-.6333-2.9038,1.77-3.8718,0,0-.1151-7.0743-4.6814-4.3072,0,0,.583-8.2546,5.8977-0.439,0,0,.3634-6.934,4.4547-8.1142,0,0,1.8747,3.3176-.7377,9.4061,0,0,9.2189-4.9873,4.793,3.7962,0,0-2.7707-4.9513-5.8256.6261,0,0,1.4753,2.652-.5218,3.4183,0,0,0,7.38,8.2654,2.9543,0,0,2.2489-.6657,4.6094-3.7639a1.319,1.319,0,0,0,.1836-1.9142c-0.8133-1.2127-2.2489-.3742-2.3965-0.2519-0.1475.1079-2.2561,1.4285-2.7635,1.7272,0,0-1.58.4533-.4822-1.0292,0,0,.3023-0.2987.59-0.6549,0.6405-.7844,1.4178-2.6627,1.2487-7.2362,0,0-.0684-0.8457.5146-0.8457a0.6374,0.6374,0,0,1,.7449.59c0.1043,0.6946.2951,5.75,4.577,5.9013,0,0,3.5624-3.4689-.5217-8.1179a1.1,1.1,0,0,1-.5217-1.3277A0.9,0.9,0,0,1,73.1,6.0056l5.7177,3.3356L66.5329,30.0784V91.57H64.2156L59.12,79.7388h2.22v-7.632H54.2626v7.5168h2.4326L51.9381,91.4584l-4.9692-11.72h2.5368v-7.74H41.9924v7.6248h2.6483L39.6607,91.57,34.6842,79.8431h2.544V71.9988H29.6033v7.74h2.76l-4.8613,11.72-4.9837-11.72h2.4324v-7.632H17.8656v7.5168h2.3317L15.1094,91.57H12.792V30.6361L0.3994,9.3988s4.9765-2.911,5.5666-3.17c0.59-.2518,2.8391-0.8528,1.2955,1.1766-1.5545,2.0331-2.8751,3.9438-1.3638,7.1176,0,0,.5685,1.7992,2.544.626,1.7271-1.0292,2.31-1.7236,2.76-4.9045,0,0,0-1.3889.8887-1.0614,0,0,.3995-0.259.3995,1.245,0,1.5185-.036,4.8325,1.1442,6.6317l0.7376,0.8923s1.0328,1.6912-.7736.81c0,0-3.1665-2.6123-4.3827-1.8028a1.6045,1.6045,0,0,0-.1547,2.6556,11.7935,11.7935,0,0,0,6.3438,4.3073s6.1567,2.5835,6.3042-3.7639c0,0-1.8063-.5433-0.4677-3.3537,0,0-2.44-5.6421-5.8689-.6548,0,0-2.6592-5.02.2951-5.2824a9.09,9.09,0,0,1,4.5662,1.5905S17.7685,6.4158,19.46,2.911c0,0,4.17.8852,4.3864,8.3409,0,0,4.8361-8.2257,6.0523.1691H29.7869Z"/><path d="M15.372,20.8451a1.5634,1.5634,0,1,1,1.5653,1.5617,1.5679,1.5679,0,0,1-1.5653-1.5617"/><path d="M29.9668,17.9627a1.57,1.57,0,0,1,1.5688-1.5544,1.5635,1.5635,0,0,1,0,3.1269,1.5686,1.5686,0,0,1-1.5688-1.5725"/><path d="M46.4,18.0311a1.56,1.56,0,1,1,3.12,0,1.56,1.56,0,0,1-3.12,0"/><path d="M60.9951,20.7947A1.5634,1.5634,0,1,1,62.5495,22.36a1.5679,1.5679,0,0,1-1.5544-1.5654"/><path d="M49.2035,5.6673a8.0534,8.0534,0,0,0-.4427,1.2882c-0.0792.439-.8923-0.1151-0.8923-0.1151l0.2806-.8277,0.5686-.59,0.4858,0.2447"/><path d="M12.3134,9.2692l-0.5326.2124L11.45,9.3557a0.5164,0.5164,0,0,1,.8637-0.0864"/><path d="M1.576,32.7879a3.4777,3.4777,0,1,0,3.4724-3.48,3.4814,3.4814,0,0,0-3.4724,3.48M0,32.7914a5.0466,5.0466,0,1,1,5.0484,5.0412A5.0547,5.0547,0,0,1,0,32.7914Z"/><path d="M2.4684,42.633a0.6327,0.6327,0,0,0-.6333.626v7.3694a0.6274,0.6274,0,0,0,.6333.6225H7.4017a0.625,0.625,0,0,0,.6333-0.6225V43.259a0.63,0.63,0,0,0-.6333-0.626H2.4684M7.4449,53.4746H2.328A2.2022,2.2022,0,0,1,.1258,51.2833v-8.672A2.2,2.2,0,0,1,2.328,40.42H7.4449a2.2038,2.2038,0,0,1,2.1985,2.1914v8.672A2.2061,2.2061,0,0,1,7.4449,53.4746Z"/><path d="M2.4108,58.1165a0.6145,0.6145,0,0,0-.626.6225v7.373a0.6183,0.6183,0,0,0,.626.63H7.3441a0.63,0.63,0,0,0,.6405-0.63V58.739a0.6268,0.6268,0,0,0-.6405-0.6225H2.4108M7.3874,68.9509H2.2633A2.1922,2.1922,0,0,1,.0719,66.7633V58.0984A2.1953,2.1953,0,0,1,2.2633,55.907h5.124a2.1907,2.1907,0,0,1,2.1913,2.1914v8.6648A2.1875,2.1875,0,0,1,7.3874,68.9509Z"/><path d="M2.4108,73.4921a0.6212,0.6212,0,0,0-.626.6225V81.48a0.6183,0.6183,0,0,0,.626.63H7.3441a0.63,0.63,0,0,0,.6405-0.63V74.1146a0.6337,0.6337,0,0,0-.6405-0.6225H2.4108M7.3874,84.323H2.2633A2.1929,2.1929,0,0,1,.0719,82.1317V73.4669a2.1983,2.1983,0,0,1,2.1914-2.1949h5.124a2.1937,2.1937,0,0,1,2.1913,2.1949v8.6648A2.1883,2.1883,0,0,1,7.3874,84.323Z"/><path d="M1.576,91.9623a3.4777,3.4777,0,1,0,3.4724-3.48,3.4714,3.4714,0,0,0-3.4724,3.48m-1.576,0A5.0466,5.0466,0,1,1,5.0484,97,5.0478,5.0478,0,0,1,0,91.9623Z"/><rect x="4.0481" y="80.6311" width="1.6588" height="6.6245"/><rect x="4.0481" y="64.7481" width="1.6588" height="10.284"/><rect x="4.0481" y="49.7107" width="1.6588" height="10.0681"/><rect x="4.0481" y="34.3891" width="1.6588" height="9.8954"/><rect x="6.5453" y="31.9602" width="6.5202" height="1.6661"/><path d="M71.1315,32.7879a3.4778,3.4778,0,1,0,3.48-3.48,3.4829,3.4829,0,0,0-3.48,3.48m-1.5688.0035a5.0466,5.0466,0,1,1,5.0484,5.0412A5.05,5.05,0,0,1,69.5627,32.7914Z"/><path d="M77.1875,42.633H72.247a0.6287,0.6287,0,0,0-.626.626v7.3694a0.6234,0.6234,0,0,0,.626.6225h4.9406a0.6168,0.6168,0,0,0,.6261-0.6225V43.259a0.622,0.622,0,0,0-.6261-0.626M72.2147,53.4746a2.1991,2.1991,0,0,1-2.1878-2.1913v-8.672A2.1968,2.1968,0,0,1,72.2147,40.42h5.12a2.1938,2.1938,0,0,1,2.195,2.1914v8.672a2.196,2.196,0,0,1-2.195,2.1913h-5.12Z"/><path d="M77.245,58.1165H72.3045a0.6174,0.6174,0,0,0-.6189.6225v7.373a0.6213,0.6213,0,0,0,.6189.63H77.245a0.6183,0.6183,0,0,0,.626-0.63V58.739a0.6145,0.6145,0,0,0-.626-0.6225M72.2686,68.9509a2.1875,2.1875,0,0,1-2.1914-2.1877V58.0984a2.1907,2.1907,0,0,1,2.1914-2.1914h5.1168a2.1907,2.1907,0,0,1,2.1913,2.1914v8.6648a2.1875,2.1875,0,0,1-2.1913,2.1877H72.2686Z"/><path d="M77.245,73.4921H72.3045a0.6243,0.6243,0,0,0-.6189.6225V81.48a0.6213,0.6213,0,0,0,.6189.63H77.245a0.6183,0.6183,0,0,0,.626-0.63V74.1146a0.6212,0.6212,0,0,0-.626-0.6225M72.2686,84.323a2.1883,2.1883,0,0,1-2.1914-2.1913V73.4669a2.1937,2.1937,0,0,1,2.1914-2.1949h5.1168a2.1937,2.1937,0,0,1,2.1913,2.1949v8.6648a2.1883,2.1883,0,0,1-2.1913,2.1913H72.2686Z"/><path d="M71.1315,91.9623a3.4778,3.4778,0,1,0,3.48-3.48,3.473,3.473,0,0,0-3.48,3.48m-1.5688,0A5.0466,5.0466,0,1,1,74.6111,97,5.0431,5.0431,0,0,1,69.5627,91.9623Z"/><rect x="73.949" y="80.6311" width="1.6588" height="6.6245"/><rect x="73.949" y="64.7481" width="1.6588" height="10.284"/><rect x="73.949" y="49.7107" width="1.6588" height="10.0681"/><rect x="73.949" y="34.3891" width="1.6588" height="9.8954"/><rect x="66.1551" y="31.9602" width="6.9627" height="1.6661"/></g></svg>