<svg id="Layer_2" data-name="Layer 2" xmlns="http://www.w3.org/2000/svg" viewBox="0 0 26.4228 28"><defs><style>.cls-1{fill:#ccc;}</style></defs><title>stopwatch-28x28</title><path class="cls-1" d="M24.7714,7.9737a10.3318,10.3318,0,0,0-4.28-3.6434l1.2236-2.6709a13.2678,13.2678,0,0,1,5.496,4.6784Z" transform="translate(-0.7886)"/><path class="cls-1" d="M3.2286,7.9733l-2.44-1.6352a13.26,13.26,0,0,1,5.496-4.6787L7.5074,4.33A10.3271,10.3271,0,0,0,3.2286,7.9733Z" transform="translate(-0.7886)"/><path class="cls-1" d="M13.8512,7.4361a8.8131,8.8131,0,1,1-8.8131,8.8131,8.8231,8.8231,0,0,1,8.8131-8.8131m0-2.9377A11.7508,11.7508,0,1,0,25.602,16.2492,11.7508,11.7508,0,0,0,13.8512,4.4984h0Z" transform="translate(-0.7886)"/><rect class="cls-1" x="14.7327" y="10.5749" width="2.9377" height="6.6098" transform="translate(13.7712 -7.3909) rotate(45)"/><rect class="cls-1" x="11.5937" y="0.2755" width="2.9377" height="5.141"/><rect class="cls-1" x="8.656" width="8.8131" height="2.9378"/></svg>